<?xml version="1.0" encoding="utf-8"?>
<!-- Generator: Adobe Illustrator 16.0.0, SVG Export Plug-In . SVG Version: 6.00 Build 0)  -->
<!DOCTYPE svg PUBLIC "-//W3C//DTD SVG 1.1//EN" "http://www.w3.org/Graphics/SVG/1.1/DTD/svg11.dtd">
<svg version="1.1" id="Layer_1" xmlns="http://www.w3.org/2000/svg" xmlns:xlink="http://www.w3.org/1999/xlink" x="0px" y="0px"
	 width="1440px" height="1080px" viewBox="0 0 1440 1080" enable-background="new 0 0 1440 1080" xml:space="preserve">
<rect fill="#424251" width="1440" height="1080"/>
<g>
	<path fill="#213845" d="M1123.177,375.083c14.692,84.095,20.44,136.013,67.609,200.216c20.491,27.708,54.645,56.424,83.298,69.102
		c23.176,10.253,41.011,16.633,61.779,15.242c23.859-1.537,48.535-16.315,58.311-45.244c6.518-19.284,9.658-44.602,3.646-58.346
		c-3.24-7.478-8.774-15.471-13.787-21.217c-4.36-4.953-13.908-6.152-18.804,3.774c-1.677,3.794-2.034,13.714-3.663,18.535
		c-7.168,23.027-32.882,33.315-51.844,24.926c-18.538-8.203-30.651-33.212-19.093-59.336c11.932-26.967,40.538-41.518,67.458-30.614
		c28.604,11.648,49.055,42.866,51.822,75.33c2.696,17.819-2.722,51.698-9.246,66.445c-11.932,26.967-27.192,48.936-59.447,64.897
		c-32.254,15.959-53.258,16.745-90.332,4.873c-52.565-16.708-99.841-87.504-115.232-142.686
		c-14.401-51.719-20.277-123.849-22.44-187.283L1123.177,375.083z M1299.799,774.184c-6.152,13.904-21.447,17.721-32.822,12.687
		c-11.799-5.22-19.262-19.104-13.108-33.008c6.526-14.746,21.632-18.141,33.43-12.923
		C1298.675,745.975,1306.323,759.436,1299.799,774.184z M1207.519,733.355c-6.152,13.902-21.444,17.721-32.823,12.686
		c-11.797-5.22-19.258-19.104-13.106-33.008c6.524-14.746,21.631-18.141,33.43-12.922
		C1206.395,705.146,1214.042,718.607,1207.519,733.355z"/>
</g>
<g>
	<path fill="#213845" d="M896.222,290.652c81.543-46.864,133.138-72.357,181.861-145.362
		c20.978-31.646,37.855-77.817,40.197-112.256c1.895-27.856,1.786-48.724-7.471-69.705c-10.573-24.126-35.16-44.114-68.794-43.347
		c-22.421,0.51-49.816,6.787-61.784,18.186c-6.522,6.169-12.715,14.908-16.78,22.262c-3.486,6.378-1.133,16.716,10.985,18.049
		c4.561,0.308,14.965-3.056,20.57-3.183c26.541-1.247,46.872,21.506,45.322,44.298c-1.517,22.282-22.852,44.237-54.252,42.103
		c-32.413-2.205-58.246-26.348-57.088-58.325c1.293-34.001,25.919-66.927,58.493-82.011c17.434-9.499,54.554-16.64,72.28-15.435
		c32.411,2.204,60.902,9.737,89.57,37.127c28.662,27.389,37.383,48.841,39.044,91.697c2.486,60.716-53.025,136.312-104.367,173.019
		c-48.131,34.378-120.605,67.61-185.473,93.726L896.222,290.652z M1242.98-42.44c16.713,1.137,26.421,15.537,25.491,29.21
		c-0.966,14.182-12.533,27.134-29.243,25.996c-17.726-1.207-26.926-15.571-25.964-29.75
		C1214.196-30.659,1225.255-43.645,1242.98-42.44z M1235.439,68.476c16.71,1.137,26.421,15.534,25.489,29.212
		c-0.965,14.178-12.531,27.13-29.245,25.993c-17.723-1.204-26.924-15.569-25.961-29.75
		C1206.654,80.257,1217.714,67.272,1235.439,68.476z"/>
</g>
<path fill="#213845" d="M232.006,612.092c5.863,3.455,11.397,7.311,16.605,11.565c51.207,41.176,49.544,115.98,6.912,167.334
	c-35.027,42.867-86.528,53.563-139.646,40.894l-50.432,94.419c-4.363,7.794-9.274,13.803-13.856,19.411
	c-33.392,40.864-80.637,46.352-126.705,16.059c-36.197-23.564-55.597-77.499-29.739-116.502
	c17.238-26.001,53.959-37.418,79.487-21.235c23.196,14.947,27.041,49.488,9.838,72.178c-24.005,31.831-62.637,16.966-71.964,4.668
	c-9.927,14.604,9.452,39.126,21.653,47.091c40.858,26.037,77.146,17.607,104.863-13.862c7.203-8.812,14.912-19.886,20.693-31.864
	l38.758-75.229c-15.766-6.869-29.496-15.417-41.515-25.235c-68.908-56.308-77.2-160.628-20.937-240.929
	c57.827-83.032,168.192-89.726,257.26-99.792c17.013-35.539,36.178-67.983,61.057-98.43
	c29.791-36.457,107.506-97.223,157.023-80.145c21.662,7.011-13.691,112.416-50.829,156.229
	c-46.633,55.432-116.14,88.165-187.154,94.943L232.006,612.092z M189.443,656.82c-28-11.521-66.216-4-86.112,21.165
	c-17.351,21.233-14.459,46.312-3.707,69.131c1.35,2.437,0.841,4.695-0.469,6.298c-1.964,2.403-6.405,2.113-8.882-0.58
	c-21.936-35.294-19.345-82.617,8.555-115.943c26.843-32.85,80.054-44.823,118.141-31.743l37.412-70.313
	c-73.238,2.958-156.775,9.525-207.917,71.296c-51.069,62.496-29.615,144.166,29.64,188.576c9.542,7.131,19.665,12.729,30.769,17.127
	L189.443,656.82z M471.608,391.641c10.075-13.148,12.94-32.186-1.083-43.645c-39.217-20.688-98.376,27.18-122.748,55.37
	c-13.75,16.827-25.023,36.345-34.436,56.044C367.979,457.958,436.219,438.221,471.608,391.641z M122.965,818.301
	c34.514,6.822,72.219-5.796,94.586-35.624c27.314-39.147,22.003-88.25-13.979-116.982L122.965,818.301z"/>
</svg>
