<?xml version="1.0" encoding="utf-8"?>
<!-- Generator: Adobe Illustrator 16.0.0, SVG Export Plug-In . SVG Version: 6.00 Build 0)  -->
<!DOCTYPE svg PUBLIC "-//W3C//DTD SVG 1.1//EN" "http://www.w3.org/Graphics/SVG/1.1/DTD/svg11.dtd">
<svg version="1.1" id="Layer_1" xmlns="http://www.w3.org/2000/svg" xmlns:xlink="http://www.w3.org/1999/xlink" x="0px" y="0px"
	 width="50px" height="50px" viewBox="0 0 50 50" enable-background="new 0 0 50 50" xml:space="preserve">
<path fill="#424252" d="M45.666,42c0,1.657-1.344,3-3,3h-35c-1.657,0-3-1.343-3-3V7c0-1.657,1.343-3,3-3h35c1.656,0,3,1.343,3,3V42z
	"/>
<path fill="#FFFFFF" d="M18.816,15.43v2.539h-0.007v12.576c-0.812-0.008-2.533,0.196-3.363,0.652
	c-2.064,1.137-3.033,3.335-2.164,4.913c0.867,1.576,3.243,1.932,5.307,0.796c1.248-0.688,2.092-1.764,2.375-2.854V18.377
	l10.251-2.818v10.867c-0.812-0.008-2.535,0.196-3.363,0.653c-2.064,1.136-3.033,3.335-2.164,4.912
	c0.867,1.576,3.244,1.933,5.306,0.796c1.248-0.688,2.092-1.763,2.375-2.854V14.967v-1.961V11.43L18.816,15.43z"/>
</svg>
