<?xml version="1.0" encoding="utf-8"?>
<!-- Generator: Adobe Illustrator 16.0.0, SVG Export Plug-In . SVG Version: 6.00 Build 0)  -->
<!DOCTYPE svg PUBLIC "-//W3C//DTD SVG 1.1//EN" "http://www.w3.org/Graphics/SVG/1.1/DTD/svg11.dtd">
<svg version="1.1" id="Layer_1" xmlns="http://www.w3.org/2000/svg" xmlns:xlink="http://www.w3.org/1999/xlink" x="0px" y="0px"
	 width="50px" height="50px" viewBox="0 0 50 50" enable-background="new 0 0 50 50" xml:space="preserve">
<path fill="#424252" d="M45.75,40.498c0,2.762-2.238,5-5,5h-31c-2.761,0-5-2.238-5-5v-31c0-2.762,2.239-5,5-5h31
	c2.762,0,5,2.238,5,5V40.498z"/>
<g>
	<path fill="#FFFFFF" d="M37.168,20.233c-0.617-1.456-1.498-2.764-2.621-3.887c-1.125-1.124-2.434-2.006-3.888-2.62
		c-3.015-1.278-6.511-1.277-9.523-0.001c-1.455,0.615-2.764,1.497-3.888,2.621c-0.672,0.673-1.261,1.419-1.757,2.222l-2.362-0.682
		l1.76,7.109l5.277-5.078l-2.207-0.637c0.307-0.426,0.646-0.829,1.02-1.204c0.9-0.899,1.946-1.605,3.111-2.097
		c2.407-1.02,5.207-1.021,7.615,0c1.164,0.492,2.211,1.197,3.111,2.097c0.898,0.899,1.604,1.945,2.096,3.11
		c0.51,1.207,0.769,2.488,0.769,3.809s-0.259,2.602-0.769,3.808c-0.492,1.165-1.197,2.212-2.096,3.11
		c-0.9,0.9-1.947,1.605-3.111,2.098c-2.407,1.02-5.208,1.021-7.616,0c-1.164-0.492-2.21-1.197-3.11-2.098l-1.731,1.73
		c1.124,1.125,2.433,2.007,3.887,2.621c1.507,0.639,3.11,0.963,4.763,0.963c1.653,0,3.255-0.324,4.761-0.962
		c1.455-0.614,2.764-1.497,3.889-2.622c1.123-1.122,2.005-2.43,2.621-3.888c0.637-1.509,0.961-3.11,0.961-4.761
		C38.129,23.346,37.805,21.744,37.168,20.233z"/>
	<path fill="#FFFFFF" d="M29.525,29.893c0,0.408-0.144,0.756-0.43,1.041c-0.285,0.285-0.633,0.428-1.04,0.428
		c-0.424,0-0.767-0.146-1.028-0.439l-2.938-2.938c-0.294-0.295-0.44-0.801-0.44-1.52v-7.834c0-0.408,0.143-0.754,0.428-1.041
		c0.286-0.286,0.633-0.428,1.041-0.428c0.408,0,0.754,0.143,1.04,0.428c0.286,0.287,0.429,0.633,0.429,1.041v7.712l2.497,2.522
		C29.378,29.126,29.525,29.469,29.525,29.893z"/>
</g>
</svg>
