<?xml version="1.0" encoding="utf-8"?>
<!-- Generator: Adobe Illustrator 16.0.0, SVG Export Plug-In . SVG Version: 6.00 Build 0)  -->
<!DOCTYPE svg PUBLIC "-//W3C//DTD SVG 1.1//EN" "http://www.w3.org/Graphics/SVG/1.1/DTD/svg11.dtd">
<svg version="1.1" id="Layer_1" xmlns="http://www.w3.org/2000/svg" xmlns:xlink="http://www.w3.org/1999/xlink" x="0px" y="0px"
	 width="50px" height="50px" viewBox="0 0 50 50" enable-background="new 0 0 50 50" xml:space="preserve">
<g>
	<path d="M35.906,39.07H14.905c-0.829,0-1.5-0.672-1.5-1.5V26.245H10.7c-0.637,0-1.205-0.402-1.416-1.003
		c-0.211-0.602-0.019-1.271,0.479-1.668l14.706-11.768c0.548-0.439,1.326-0.439,1.874,0l14.706,11.768
		c0.498,0.397,0.689,1.066,0.479,1.668c-0.211,0.601-0.778,1.003-1.416,1.003h-2.705V37.57C37.406,38.398,36.734,39.07,35.906,39.07
		z M16.405,36.07h18.001V24.745c0-0.806,0.635-1.463,1.432-1.498l-10.432-8.349l-10.433,8.349c0.797,0.035,1.432,0.692,1.432,1.498
		V36.07z"/>
</g>
</svg>
